%TF.GenerationSoftware,KiCad,Pcbnew,6.0.9-8da3e8f707~117~ubuntu22.04.1*%
%TF.CreationDate,2022-12-16T00:29:24-08:00*%
%TF.ProjectId,xyz_touch_probe,78797a5f-746f-4756-9368-5f70726f6265,rev?*%
%TF.SameCoordinates,Original*%
%TF.FileFunction,Legend,Top*%
%TF.FilePolarity,Positive*%
%FSLAX46Y46*%
G04 Gerber Fmt 4.6, Leading zero omitted, Abs format (unit mm)*
G04 Created by KiCad (PCBNEW 6.0.9-8da3e8f707~117~ubuntu22.04.1) date 2022-12-16 00:29:24*
%MOMM*%
%LPD*%
G01*
G04 APERTURE LIST*
%ADD10C,0.150000*%
%ADD11C,0.120000*%
G04 APERTURE END LIST*
D10*
X142642857Y-131985535D02*
X143071428Y-131985535D01*
X142857142Y-132735535D02*
X142857142Y-131985535D01*
X143428571Y-132735535D02*
X143357142Y-132699821D01*
X143321428Y-132664107D01*
X143285714Y-132592678D01*
X143285714Y-132378392D01*
X143321428Y-132306964D01*
X143357142Y-132271250D01*
X143428571Y-132235535D01*
X143535714Y-132235535D01*
X143607142Y-132271250D01*
X143642857Y-132306964D01*
X143678571Y-132378392D01*
X143678571Y-132592678D01*
X143642857Y-132664107D01*
X143607142Y-132699821D01*
X143535714Y-132735535D01*
X143428571Y-132735535D01*
X144321428Y-132235535D02*
X144321428Y-132735535D01*
X144000000Y-132235535D02*
X144000000Y-132628392D01*
X144035714Y-132699821D01*
X144107142Y-132735535D01*
X144214285Y-132735535D01*
X144285714Y-132699821D01*
X144321428Y-132664107D01*
X145000000Y-132699821D02*
X144928571Y-132735535D01*
X144785714Y-132735535D01*
X144714285Y-132699821D01*
X144678571Y-132664107D01*
X144642857Y-132592678D01*
X144642857Y-132378392D01*
X144678571Y-132306964D01*
X144714285Y-132271250D01*
X144785714Y-132235535D01*
X144928571Y-132235535D01*
X145000000Y-132271250D01*
X145321428Y-132735535D02*
X145321428Y-131985535D01*
X145642857Y-132735535D02*
X145642857Y-132342678D01*
X145607142Y-132271250D01*
X145535714Y-132235535D01*
X145428571Y-132235535D01*
X145357142Y-132271250D01*
X145321428Y-132306964D01*
X146571428Y-132735535D02*
X146571428Y-131985535D01*
X146857142Y-131985535D01*
X146928571Y-132021250D01*
X146964285Y-132056964D01*
X147000000Y-132128392D01*
X147000000Y-132235535D01*
X146964285Y-132306964D01*
X146928571Y-132342678D01*
X146857142Y-132378392D01*
X146571428Y-132378392D01*
X147321428Y-132735535D02*
X147321428Y-132235535D01*
X147321428Y-132378392D02*
X147357142Y-132306964D01*
X147392857Y-132271250D01*
X147464285Y-132235535D01*
X147535714Y-132235535D01*
X147892857Y-132735535D02*
X147821428Y-132699821D01*
X147785714Y-132664107D01*
X147750000Y-132592678D01*
X147750000Y-132378392D01*
X147785714Y-132306964D01*
X147821428Y-132271250D01*
X147892857Y-132235535D01*
X148000000Y-132235535D01*
X148071428Y-132271250D01*
X148107142Y-132306964D01*
X148142857Y-132378392D01*
X148142857Y-132592678D01*
X148107142Y-132664107D01*
X148071428Y-132699821D01*
X148000000Y-132735535D01*
X147892857Y-132735535D01*
X148464285Y-132735535D02*
X148464285Y-131985535D01*
X148464285Y-132271250D02*
X148535714Y-132235535D01*
X148678571Y-132235535D01*
X148750000Y-132271250D01*
X148785714Y-132306964D01*
X148821428Y-132378392D01*
X148821428Y-132592678D01*
X148785714Y-132664107D01*
X148750000Y-132699821D01*
X148678571Y-132735535D01*
X148535714Y-132735535D01*
X148464285Y-132699821D01*
X149428571Y-132699821D02*
X149357142Y-132735535D01*
X149214285Y-132735535D01*
X149142857Y-132699821D01*
X149107142Y-132628392D01*
X149107142Y-132342678D01*
X149142857Y-132271250D01*
X149214285Y-132235535D01*
X149357142Y-132235535D01*
X149428571Y-132271250D01*
X149464285Y-132342678D01*
X149464285Y-132414107D01*
X149107142Y-132485535D01*
X150357142Y-132735535D02*
X150357142Y-131985535D01*
X150642857Y-131985535D01*
X150714285Y-132021250D01*
X150750000Y-132056964D01*
X150785714Y-132128392D01*
X150785714Y-132235535D01*
X150750000Y-132306964D01*
X150714285Y-132342678D01*
X150642857Y-132378392D01*
X150357142Y-132378392D01*
X151535714Y-132664107D02*
X151500000Y-132699821D01*
X151392857Y-132735535D01*
X151321428Y-132735535D01*
X151214285Y-132699821D01*
X151142857Y-132628392D01*
X151107142Y-132556964D01*
X151071428Y-132414107D01*
X151071428Y-132306964D01*
X151107142Y-132164107D01*
X151142857Y-132092678D01*
X151214285Y-132021250D01*
X151321428Y-131985535D01*
X151392857Y-131985535D01*
X151500000Y-132021250D01*
X151535714Y-132056964D01*
X152107142Y-132342678D02*
X152214285Y-132378392D01*
X152250000Y-132414107D01*
X152285714Y-132485535D01*
X152285714Y-132592678D01*
X152250000Y-132664107D01*
X152214285Y-132699821D01*
X152142857Y-132735535D01*
X151857142Y-132735535D01*
X151857142Y-131985535D01*
X152107142Y-131985535D01*
X152178571Y-132021250D01*
X152214285Y-132056964D01*
X152250000Y-132128392D01*
X152250000Y-132199821D01*
X152214285Y-132271250D01*
X152178571Y-132306964D01*
X152107142Y-132342678D01*
X151857142Y-132342678D01*
X142089285Y-133193035D02*
X142339285Y-133943035D01*
X142589285Y-133193035D01*
X143160714Y-133943035D02*
X143160714Y-133550178D01*
X143125000Y-133478750D01*
X143053571Y-133443035D01*
X142910714Y-133443035D01*
X142839285Y-133478750D01*
X143160714Y-133907321D02*
X143089285Y-133943035D01*
X142910714Y-133943035D01*
X142839285Y-133907321D01*
X142803571Y-133835892D01*
X142803571Y-133764464D01*
X142839285Y-133693035D01*
X142910714Y-133657321D01*
X143089285Y-133657321D01*
X143160714Y-133621607D01*
X143482142Y-133907321D02*
X143553571Y-133943035D01*
X143696428Y-133943035D01*
X143767857Y-133907321D01*
X143803571Y-133835892D01*
X143803571Y-133800178D01*
X143767857Y-133728750D01*
X143696428Y-133693035D01*
X143589285Y-133693035D01*
X143517857Y-133657321D01*
X143482142Y-133585892D01*
X143482142Y-133550178D01*
X143517857Y-133478750D01*
X143589285Y-133443035D01*
X143696428Y-133443035D01*
X143767857Y-133478750D01*
X144446428Y-133443035D02*
X144446428Y-134193035D01*
X144446428Y-133907321D02*
X144375000Y-133943035D01*
X144232142Y-133943035D01*
X144160714Y-133907321D01*
X144125000Y-133871607D01*
X144089285Y-133800178D01*
X144089285Y-133585892D01*
X144125000Y-133514464D01*
X144160714Y-133478750D01*
X144232142Y-133443035D01*
X144375000Y-133443035D01*
X144446428Y-133478750D01*
X145125000Y-133443035D02*
X145125000Y-133943035D01*
X144803571Y-133443035D02*
X144803571Y-133835892D01*
X144839285Y-133907321D01*
X144910714Y-133943035D01*
X145017857Y-133943035D01*
X145089285Y-133907321D01*
X145125000Y-133871607D01*
X145767857Y-133907321D02*
X145696428Y-133943035D01*
X145553571Y-133943035D01*
X145482142Y-133907321D01*
X145446428Y-133835892D01*
X145446428Y-133550178D01*
X145482142Y-133478750D01*
X145553571Y-133443035D01*
X145696428Y-133443035D01*
X145767857Y-133478750D01*
X145803571Y-133550178D01*
X145803571Y-133621607D01*
X145446428Y-133693035D01*
X146053571Y-133443035D02*
X146446428Y-133443035D01*
X146053571Y-133943035D01*
X146446428Y-133943035D01*
X147696428Y-133943035D02*
X147267857Y-133943035D01*
X147482142Y-133943035D02*
X147482142Y-133193035D01*
X147410714Y-133300178D01*
X147339285Y-133371607D01*
X147267857Y-133407321D01*
X147982142Y-133264464D02*
X148017857Y-133228750D01*
X148089285Y-133193035D01*
X148267857Y-133193035D01*
X148339285Y-133228750D01*
X148375000Y-133264464D01*
X148410714Y-133335892D01*
X148410714Y-133407321D01*
X148375000Y-133514464D01*
X147946428Y-133943035D01*
X148410714Y-133943035D01*
X149267857Y-133157321D02*
X148625000Y-134121607D01*
X149910714Y-133943035D02*
X149482142Y-133943035D01*
X149696428Y-133943035D02*
X149696428Y-133193035D01*
X149625000Y-133300178D01*
X149553571Y-133371607D01*
X149482142Y-133407321D01*
X150553571Y-133193035D02*
X150410714Y-133193035D01*
X150339285Y-133228750D01*
X150303571Y-133264464D01*
X150232142Y-133371607D01*
X150196428Y-133514464D01*
X150196428Y-133800178D01*
X150232142Y-133871607D01*
X150267857Y-133907321D01*
X150339285Y-133943035D01*
X150482142Y-133943035D01*
X150553571Y-133907321D01*
X150589285Y-133871607D01*
X150625000Y-133800178D01*
X150625000Y-133621607D01*
X150589285Y-133550178D01*
X150553571Y-133514464D01*
X150482142Y-133478750D01*
X150339285Y-133478750D01*
X150267857Y-133514464D01*
X150232142Y-133550178D01*
X150196428Y-133621607D01*
X151482142Y-133157321D02*
X150839285Y-134121607D01*
X151696428Y-133264464D02*
X151732142Y-133228750D01*
X151803571Y-133193035D01*
X151982142Y-133193035D01*
X152053571Y-133228750D01*
X152089285Y-133264464D01*
X152125000Y-133335892D01*
X152125000Y-133407321D01*
X152089285Y-133514464D01*
X151660714Y-133943035D01*
X152125000Y-133943035D01*
X152410714Y-133264464D02*
X152446428Y-133228750D01*
X152517857Y-133193035D01*
X152696428Y-133193035D01*
X152767857Y-133228750D01*
X152803571Y-133264464D01*
X152839285Y-133335892D01*
X152839285Y-133407321D01*
X152803571Y-133514464D01*
X152375000Y-133943035D01*
X152839285Y-133943035D01*
%TO.C,H6*%
X155615297Y-129762032D02*
X155615297Y-128762032D01*
X155615297Y-129238223D02*
X156186725Y-129238223D01*
X156186725Y-129762032D02*
X156186725Y-128762032D01*
X157091487Y-128762032D02*
X156901011Y-128762032D01*
X156805773Y-128809652D01*
X156758154Y-128857271D01*
X156662916Y-129000128D01*
X156615297Y-129190604D01*
X156615297Y-129571556D01*
X156662916Y-129666794D01*
X156710535Y-129714413D01*
X156805773Y-129762032D01*
X156996249Y-129762032D01*
X157091487Y-129714413D01*
X157139106Y-129666794D01*
X157186725Y-129571556D01*
X157186725Y-129333461D01*
X157139106Y-129238223D01*
X157091487Y-129190604D01*
X156996249Y-129142985D01*
X156805773Y-129142985D01*
X156710535Y-129190604D01*
X156662916Y-129238223D01*
X156615297Y-129333461D01*
%TO.C,H5*%
X159857938Y-122413562D02*
X159857938Y-121413562D01*
X159857938Y-121889753D02*
X160429366Y-121889753D01*
X160429366Y-122413562D02*
X160429366Y-121413562D01*
X161381747Y-121413562D02*
X160905557Y-121413562D01*
X160857938Y-121889753D01*
X160905557Y-121842134D01*
X161000795Y-121794515D01*
X161238890Y-121794515D01*
X161334128Y-121842134D01*
X161381747Y-121889753D01*
X161429366Y-121984991D01*
X161429366Y-122223086D01*
X161381747Y-122318324D01*
X161334128Y-122365943D01*
X161238890Y-122413562D01*
X161000795Y-122413562D01*
X160905557Y-122365943D01*
X160857938Y-122318324D01*
%TO.C,H4*%
X150980736Y-107037797D02*
X150980736Y-106037797D01*
X150980736Y-106513988D02*
X151552164Y-106513988D01*
X151552164Y-107037797D02*
X151552164Y-106037797D01*
X152456926Y-106371131D02*
X152456926Y-107037797D01*
X152218831Y-105990178D02*
X151980736Y-106704464D01*
X152599783Y-106704464D01*
%TO.C,H3*%
X142495454Y-107037797D02*
X142495454Y-106037797D01*
X142495454Y-106513988D02*
X143066882Y-106513988D01*
X143066882Y-107037797D02*
X143066882Y-106037797D01*
X143447835Y-106037797D02*
X144066882Y-106037797D01*
X143733549Y-106418750D01*
X143876406Y-106418750D01*
X143971644Y-106466369D01*
X144019263Y-106513988D01*
X144066882Y-106609226D01*
X144066882Y-106847321D01*
X144019263Y-106942559D01*
X143971644Y-106990178D01*
X143876406Y-107037797D01*
X143590692Y-107037797D01*
X143495454Y-106990178D01*
X143447835Y-106942559D01*
%TO.C,H2*%
X133618252Y-122413562D02*
X133618252Y-121413562D01*
X133618252Y-121889753D02*
X134189680Y-121889753D01*
X134189680Y-122413562D02*
X134189680Y-121413562D01*
X134618252Y-121508801D02*
X134665871Y-121461182D01*
X134761109Y-121413562D01*
X134999204Y-121413562D01*
X135094442Y-121461182D01*
X135142061Y-121508801D01*
X135189680Y-121604039D01*
X135189680Y-121699277D01*
X135142061Y-121842134D01*
X134570633Y-122413562D01*
X135189680Y-122413562D01*
%TO.C,H1*%
X137860893Y-129762032D02*
X137860893Y-128762032D01*
X137860893Y-129238223D02*
X138432321Y-129238223D01*
X138432321Y-129762032D02*
X138432321Y-128762032D01*
X139432321Y-129762032D02*
X138860893Y-129762032D01*
X139146607Y-129762032D02*
X139146607Y-128762032D01*
X139051369Y-128904890D01*
X138956131Y-129000128D01*
X138860893Y-129047747D01*
%TO.C,J1*%
X143622380Y-137333333D02*
X144336666Y-137333333D01*
X144479523Y-137380952D01*
X144574761Y-137476190D01*
X144622380Y-137619047D01*
X144622380Y-137714285D01*
X144622380Y-136333333D02*
X144622380Y-136904761D01*
X144622380Y-136619047D02*
X143622380Y-136619047D01*
X143765238Y-136714285D01*
X143860476Y-136809523D01*
X143908095Y-136904761D01*
D11*
X147770000Y-138330000D02*
X150370000Y-138330000D01*
X150370000Y-138330000D02*
X150370000Y-135670000D01*
X145170000Y-138330000D02*
X145170000Y-137000000D01*
X146500000Y-138330000D02*
X145170000Y-138330000D01*
X147770000Y-135670000D02*
X150370000Y-135670000D01*
X147770000Y-138330000D02*
X147770000Y-135670000D01*
%TD*%
M02*
