%TF.GenerationSoftware,KiCad,Pcbnew,6.0.9-8da3e8f707~117~ubuntu22.04.1*%
%TF.CreationDate,2022-12-16T00:29:24-08:00*%
%TF.ProjectId,xyz_touch_probe,78797a5f-746f-4756-9368-5f70726f6265,rev?*%
%TF.SameCoordinates,Original*%
%TF.FileFunction,Copper,L1,Top*%
%TF.FilePolarity,Positive*%
%FSLAX46Y46*%
G04 Gerber Fmt 4.6, Leading zero omitted, Abs format (unit mm)*
G04 Created by KiCad (PCBNEW 6.0.9-8da3e8f707~117~ubuntu22.04.1) date 2022-12-16 00:29:24*
%MOMM*%
%LPD*%
G01*
G04 APERTURE LIST*
%TA.AperFunction,ComponentPad*%
%ADD10C,5.600000*%
%TD*%
%TA.AperFunction,ComponentPad*%
%ADD11R,1.700000X1.700000*%
%TD*%
%TA.AperFunction,ComponentPad*%
%ADD12O,1.700000X1.700000*%
%TD*%
%TA.AperFunction,Conductor*%
%ADD13C,0.250000*%
%TD*%
%TA.AperFunction,Conductor*%
%ADD14C,0.152400*%
%TD*%
G04 APERTURE END LIST*
D10*
%TO.P,H6,1,1*%
%TO.N,Net-(H6-Pad1)*%
X156377202Y-133109652D03*
%TD*%
%TO.P,H5,1,1*%
%TO.N,Net-(H4-Pad1)*%
X160619843Y-125761182D03*
%TD*%
%TO.P,H4,1,1*%
%TO.N,Net-(H4-Pad1)*%
X151742641Y-110385417D03*
%TD*%
%TO.P,H3,1,1*%
%TO.N,Net-(H2-Pad1)*%
X143257359Y-110385417D03*
%TD*%
%TO.P,H2,1,1*%
%TO.N,Net-(H2-Pad1)*%
X134380157Y-125761182D03*
%TD*%
%TO.P,H1,1,1*%
%TO.N,Net-(H1-Pad1)*%
X138622798Y-133109652D03*
%TD*%
D11*
%TO.P,J1,1,Pin_1*%
%TO.N,Net-(H1-Pad1)*%
X146500000Y-137000000D03*
D12*
%TO.P,J1,2,Pin_2*%
%TO.N,Net-(H6-Pad1)*%
X149040000Y-137000000D03*
%TD*%
D13*
%TO.N,Net-(H2-Pad1)*%
X143257359Y-110385417D02*
X143114583Y-110385417D01*
X143114583Y-110385417D02*
X134380157Y-119119843D01*
X134380157Y-119119843D02*
X134380157Y-125761182D01*
D14*
%TO.N,Net-(H4-Pad1)*%
X151742641Y-110385417D02*
X151885417Y-110385417D01*
X151885417Y-110385417D02*
X160619843Y-119119843D01*
X160619843Y-119119843D02*
X160619843Y-125761182D01*
%TO.N,Net-(H1-Pad1)*%
X146500000Y-137000000D02*
X142513146Y-137000000D01*
X142513146Y-137000000D02*
X138622798Y-133109652D01*
%TO.N,Net-(H6-Pad1)*%
X156377202Y-133109652D02*
X152486854Y-137000000D01*
X152486854Y-137000000D02*
X149040000Y-137000000D01*
%TD*%
%TA.AperFunction,NonConductor*%
G36*
X153660617Y-104510000D02*
G01*
X153675450Y-104512310D01*
X153675454Y-104512310D01*
X153684323Y-104513691D01*
X153693225Y-104512527D01*
X153693229Y-104512527D01*
X153703971Y-104511122D01*
X153726302Y-104510201D01*
X154016483Y-104524024D01*
X154028419Y-104525163D01*
X154186929Y-104547953D01*
X154345440Y-104570743D01*
X154357203Y-104573011D01*
X154648873Y-104643769D01*
X154668432Y-104648514D01*
X154679936Y-104651892D01*
X154907271Y-104730573D01*
X154982587Y-104756640D01*
X154993699Y-104761088D01*
X155285055Y-104894146D01*
X155295693Y-104899631D01*
X155434372Y-104979697D01*
X155573045Y-105059760D01*
X155583132Y-105066242D01*
X155844020Y-105252019D01*
X155853438Y-105259426D01*
X156095485Y-105469161D01*
X156104139Y-105477411D01*
X156325154Y-105709206D01*
X156325159Y-105709211D01*
X156333007Y-105718268D01*
X156361172Y-105754082D01*
X156530982Y-105970013D01*
X156537937Y-105979781D01*
X156691002Y-106217956D01*
X156702516Y-106240612D01*
X156706694Y-106251410D01*
X156712149Y-106258531D01*
X156712150Y-106258534D01*
X156726050Y-106276681D01*
X156735139Y-106290297D01*
X163999047Y-118871754D01*
X164007436Y-118889281D01*
X164016097Y-118911669D01*
X164028643Y-118928048D01*
X164040373Y-118946479D01*
X164161841Y-119179811D01*
X164166486Y-119189773D01*
X164267833Y-119434437D01*
X164278839Y-119461008D01*
X164282598Y-119471334D01*
X164319252Y-119587579D01*
X164370889Y-119751346D01*
X164373734Y-119761963D01*
X164437284Y-120048605D01*
X164439189Y-120059410D01*
X164439190Y-120059415D01*
X164439190Y-120059417D01*
X164477515Y-120350503D01*
X164478473Y-120361452D01*
X164489621Y-120616695D01*
X164488240Y-120641581D01*
X164487690Y-120645110D01*
X164487690Y-120645115D01*
X164486309Y-120653984D01*
X164487949Y-120666523D01*
X164490436Y-120685541D01*
X164491500Y-120701880D01*
X164491500Y-138365500D01*
X164471498Y-138433621D01*
X164417842Y-138480114D01*
X164365500Y-138491500D01*
X149627160Y-138491500D01*
X149559039Y-138471498D01*
X149512546Y-138417842D01*
X149502442Y-138347568D01*
X149531936Y-138282988D01*
X149571728Y-138252349D01*
X149672929Y-138202771D01*
X149737994Y-138170896D01*
X149919860Y-138041173D01*
X150078096Y-137883489D01*
X150208453Y-137702077D01*
X150231783Y-137654872D01*
X150279897Y-137602666D01*
X150344740Y-137584700D01*
X152440276Y-137584700D01*
X152456723Y-137585778D01*
X152486854Y-137589745D01*
X152525173Y-137584700D01*
X152525178Y-137584700D01*
X152631303Y-137570728D01*
X152639491Y-137569650D01*
X152740067Y-137527990D01*
X152781727Y-137510734D01*
X152826240Y-137476577D01*
X152903867Y-137417013D01*
X152908893Y-137410463D01*
X152908897Y-137410459D01*
X152922377Y-137392891D01*
X152933245Y-137380499D01*
X154413469Y-135900275D01*
X154475781Y-135866249D01*
X154546596Y-135871314D01*
X154568023Y-135881708D01*
X154808557Y-136027955D01*
X154808562Y-136027958D01*
X154811472Y-136029727D01*
X154814560Y-136031173D01*
X154814559Y-136031173D01*
X155132912Y-136180301D01*
X155132922Y-136180305D01*
X155135996Y-136181745D01*
X155139214Y-136182847D01*
X155139217Y-136182848D01*
X155471817Y-136296723D01*
X155471825Y-136296725D01*
X155475040Y-136297826D01*
X155824637Y-136376611D01*
X155876930Y-136382569D01*
X156177316Y-136416794D01*
X156177324Y-136416794D01*
X156180699Y-136417179D01*
X156184103Y-136417197D01*
X156184106Y-136417197D01*
X156378429Y-136418214D01*
X156539059Y-136419055D01*
X156542445Y-136418705D01*
X156542447Y-136418705D01*
X156892134Y-136382569D01*
X156892143Y-136382568D01*
X156895526Y-136382218D01*
X156898859Y-136381504D01*
X156898862Y-136381503D01*
X157071388Y-136344516D01*
X157245929Y-136307098D01*
X157586170Y-136194574D01*
X157912268Y-136045963D01*
X158027522Y-135977530D01*
X158217464Y-135864751D01*
X158217469Y-135864748D01*
X158220409Y-135863002D01*
X158242379Y-135846507D01*
X158381901Y-135741750D01*
X158506988Y-135647832D01*
X158768653Y-135402971D01*
X159002342Y-135131282D01*
X159152291Y-134913105D01*
X159203392Y-134838753D01*
X159203397Y-134838746D01*
X159205322Y-134835944D01*
X159206934Y-134832950D01*
X159206939Y-134832942D01*
X159373597Y-134523424D01*
X159375219Y-134520412D01*
X159510044Y-134188376D01*
X159520344Y-134152220D01*
X159540729Y-134080658D01*
X159608222Y-133843722D01*
X159668603Y-133490480D01*
X159670713Y-133455992D01*
X159690370Y-133134580D01*
X159690480Y-133132783D01*
X159690561Y-133109652D01*
X159671181Y-132751811D01*
X159613268Y-132398157D01*
X159517499Y-132052825D01*
X159514445Y-132045149D01*
X159386254Y-131723021D01*
X159384995Y-131719857D01*
X159305132Y-131569022D01*
X159218904Y-131406165D01*
X159218900Y-131406158D01*
X159217305Y-131403146D01*
X159016392Y-131106398D01*
X158784605Y-130833084D01*
X158524656Y-130586402D01*
X158239586Y-130369237D01*
X158236674Y-130367480D01*
X158236669Y-130367477D01*
X157935645Y-130185888D01*
X157935639Y-130185885D01*
X157932730Y-130184130D01*
X157607677Y-130033245D01*
X157425666Y-129971638D01*
X157271457Y-129919441D01*
X157271452Y-129919440D01*
X157268230Y-129918349D01*
X157069883Y-129874376D01*
X156921695Y-129841523D01*
X156921689Y-129841522D01*
X156918360Y-129840784D01*
X156914971Y-129840410D01*
X156914966Y-129840409D01*
X156565540Y-129801832D01*
X156565535Y-129801832D01*
X156562159Y-129801459D01*
X156558760Y-129801453D01*
X156558759Y-129801453D01*
X156389282Y-129801157D01*
X156203794Y-129800834D01*
X156090615Y-129812929D01*
X155850841Y-129838553D01*
X155850833Y-129838554D01*
X155847458Y-129838915D01*
X155497319Y-129915258D01*
X155157473Y-130028969D01*
X155154380Y-130030391D01*
X155154379Y-130030392D01*
X155148176Y-130033245D01*
X154831896Y-130178718D01*
X154524395Y-130362753D01*
X154521669Y-130364815D01*
X154521667Y-130364816D01*
X154241764Y-130576506D01*
X154238569Y-130578922D01*
X154236084Y-130581264D01*
X154236079Y-130581268D01*
X154138828Y-130672913D01*
X153977761Y-130824695D01*
X153745021Y-131097198D01*
X153743102Y-131100010D01*
X153743099Y-131100015D01*
X153706645Y-131153455D01*
X153543073Y-131393243D01*
X153374279Y-131709366D01*
X153240613Y-132041870D01*
X153239693Y-132045144D01*
X153239691Y-132045149D01*
X153237534Y-132052825D01*
X153143639Y-132386865D01*
X153084492Y-132740315D01*
X153063863Y-133098086D01*
X153081994Y-133455992D01*
X153082531Y-133459347D01*
X153082532Y-133459353D01*
X153087518Y-133490480D01*
X153138672Y-133809847D01*
X153233235Y-134155511D01*
X153364576Y-134488940D01*
X153531159Y-134806234D01*
X153533065Y-134809071D01*
X153533066Y-134809072D01*
X153602974Y-134913105D01*
X153624367Y-134980802D01*
X153605763Y-135049318D01*
X153587488Y-135072476D01*
X152281569Y-136378395D01*
X152219257Y-136412421D01*
X152192474Y-136415300D01*
X150348165Y-136415300D01*
X150280044Y-136395298D01*
X150242749Y-136354937D01*
X150241354Y-136355840D01*
X150122822Y-136172617D01*
X150122820Y-136172614D01*
X150120014Y-136168277D01*
X149969670Y-136003051D01*
X149965619Y-135999852D01*
X149965615Y-135999848D01*
X149798414Y-135867800D01*
X149798410Y-135867798D01*
X149794359Y-135864598D01*
X149598789Y-135756638D01*
X149593920Y-135754914D01*
X149593916Y-135754912D01*
X149393087Y-135683795D01*
X149393083Y-135683794D01*
X149388212Y-135682069D01*
X149383119Y-135681162D01*
X149383116Y-135681161D01*
X149173373Y-135643800D01*
X149173367Y-135643799D01*
X149168284Y-135642894D01*
X149094452Y-135641992D01*
X148950081Y-135640228D01*
X148950079Y-135640228D01*
X148944911Y-135640165D01*
X148724091Y-135673955D01*
X148511756Y-135743357D01*
X148313607Y-135846507D01*
X148309474Y-135849610D01*
X148309471Y-135849612D01*
X148139100Y-135977530D01*
X148134965Y-135980635D01*
X148078537Y-136039684D01*
X148054283Y-136065064D01*
X147992759Y-136100494D01*
X147921846Y-136097037D01*
X147864060Y-136055791D01*
X147845207Y-136022243D01*
X147803767Y-135911703D01*
X147800615Y-135903295D01*
X147713261Y-135786739D01*
X147596705Y-135699385D01*
X147460316Y-135648255D01*
X147398134Y-135641500D01*
X145601866Y-135641500D01*
X145539684Y-135648255D01*
X145403295Y-135699385D01*
X145286739Y-135786739D01*
X145199385Y-135903295D01*
X145148255Y-136039684D01*
X145141500Y-136101866D01*
X145141500Y-136289300D01*
X145121498Y-136357421D01*
X145067842Y-136403914D01*
X145015500Y-136415300D01*
X142807526Y-136415300D01*
X142739405Y-136395298D01*
X142718431Y-136378395D01*
X141413027Y-135072991D01*
X141379001Y-135010679D01*
X141384066Y-134939864D01*
X141398279Y-134912534D01*
X141450918Y-134835944D01*
X141452530Y-134832950D01*
X141452535Y-134832942D01*
X141619193Y-134523424D01*
X141620815Y-134520412D01*
X141755640Y-134188376D01*
X141765940Y-134152220D01*
X141786325Y-134080658D01*
X141853818Y-133843722D01*
X141914199Y-133490480D01*
X141916309Y-133455992D01*
X141935966Y-133134580D01*
X141936076Y-133132783D01*
X141936157Y-133109652D01*
X141916777Y-132751811D01*
X141858864Y-132398157D01*
X141763095Y-132052825D01*
X141760041Y-132045149D01*
X141631850Y-131723021D01*
X141630591Y-131719857D01*
X141550728Y-131569022D01*
X141464500Y-131406165D01*
X141464496Y-131406158D01*
X141462901Y-131403146D01*
X141261988Y-131106398D01*
X141030201Y-130833084D01*
X140770252Y-130586402D01*
X140485182Y-130369237D01*
X140482270Y-130367480D01*
X140482265Y-130367477D01*
X140181241Y-130185888D01*
X140181235Y-130185885D01*
X140178326Y-130184130D01*
X139853273Y-130033245D01*
X139671262Y-129971638D01*
X139517053Y-129919441D01*
X139517048Y-129919440D01*
X139513826Y-129918349D01*
X139315479Y-129874376D01*
X139167291Y-129841523D01*
X139167285Y-129841522D01*
X139163956Y-129840784D01*
X139160567Y-129840410D01*
X139160562Y-129840409D01*
X138811136Y-129801832D01*
X138811131Y-129801832D01*
X138807755Y-129801459D01*
X138804356Y-129801453D01*
X138804355Y-129801453D01*
X138634878Y-129801157D01*
X138449390Y-129800834D01*
X138336211Y-129812929D01*
X138096437Y-129838553D01*
X138096429Y-129838554D01*
X138093054Y-129838915D01*
X137742915Y-129915258D01*
X137403069Y-130028969D01*
X137399976Y-130030391D01*
X137399975Y-130030392D01*
X137393772Y-130033245D01*
X137077492Y-130178718D01*
X136769991Y-130362753D01*
X136767265Y-130364815D01*
X136767263Y-130364816D01*
X136487360Y-130576506D01*
X136484165Y-130578922D01*
X136481680Y-130581264D01*
X136481675Y-130581268D01*
X136384424Y-130672913D01*
X136223357Y-130824695D01*
X135990617Y-131097198D01*
X135988698Y-131100010D01*
X135988695Y-131100015D01*
X135952241Y-131153455D01*
X135788669Y-131393243D01*
X135619875Y-131709366D01*
X135486209Y-132041870D01*
X135485289Y-132045144D01*
X135485287Y-132045149D01*
X135483130Y-132052825D01*
X135389235Y-132386865D01*
X135330088Y-132740315D01*
X135309459Y-133098086D01*
X135327590Y-133455992D01*
X135328127Y-133459347D01*
X135328128Y-133459353D01*
X135333114Y-133490480D01*
X135384268Y-133809847D01*
X135478831Y-134155511D01*
X135610172Y-134488940D01*
X135776755Y-134806234D01*
X135778656Y-134809063D01*
X135778662Y-134809073D01*
X135906398Y-134999162D01*
X135976632Y-135103681D01*
X136207463Y-135377802D01*
X136466549Y-135625390D01*
X136750859Y-135843549D01*
X136813620Y-135881708D01*
X137054153Y-136027955D01*
X137054158Y-136027958D01*
X137057068Y-136029727D01*
X137060156Y-136031173D01*
X137060155Y-136031173D01*
X137378508Y-136180301D01*
X137378518Y-136180305D01*
X137381592Y-136181745D01*
X137384810Y-136182847D01*
X137384813Y-136182848D01*
X137717413Y-136296723D01*
X137717421Y-136296725D01*
X137720636Y-136297826D01*
X138070233Y-136376611D01*
X138122526Y-136382569D01*
X138422912Y-136416794D01*
X138422920Y-136416794D01*
X138426295Y-136417179D01*
X138429699Y-136417197D01*
X138429702Y-136417197D01*
X138624025Y-136418214D01*
X138784655Y-136419055D01*
X138788041Y-136418705D01*
X138788043Y-136418705D01*
X139137730Y-136382569D01*
X139137739Y-136382568D01*
X139141122Y-136382218D01*
X139144455Y-136381504D01*
X139144458Y-136381503D01*
X139316984Y-136344516D01*
X139491525Y-136307098D01*
X139831766Y-136194574D01*
X140157864Y-136045963D01*
X140273118Y-135977530D01*
X140434053Y-135881974D01*
X140502838Y-135864394D01*
X140570209Y-135886793D01*
X140587476Y-135901220D01*
X142066759Y-137380503D01*
X142077626Y-137392894D01*
X142096133Y-137417013D01*
X142173760Y-137476577D01*
X142218273Y-137510734D01*
X142360509Y-137569650D01*
X142487877Y-137586419D01*
X142504951Y-137588667D01*
X142513146Y-137589746D01*
X142521342Y-137588667D01*
X142543284Y-137585778D01*
X142559731Y-137584700D01*
X145015500Y-137584700D01*
X145083621Y-137604702D01*
X145130114Y-137658358D01*
X145141500Y-137710700D01*
X145141500Y-137898134D01*
X145148255Y-137960316D01*
X145199385Y-138096705D01*
X145286739Y-138213261D01*
X145293919Y-138218642D01*
X145293920Y-138218643D01*
X145355339Y-138264674D01*
X145397854Y-138321533D01*
X145402880Y-138392352D01*
X145368820Y-138454645D01*
X145306489Y-138488635D01*
X145279774Y-138491500D01*
X132216537Y-138491500D01*
X132148416Y-138471498D01*
X132101923Y-138417842D01*
X132097764Y-138407560D01*
X132059893Y-138300615D01*
X132000934Y-138134119D01*
X131864907Y-137870572D01*
X131851226Y-137851105D01*
X131725428Y-137672113D01*
X131694372Y-137627925D01*
X131619349Y-137547191D01*
X131495404Y-137413810D01*
X131495401Y-137413808D01*
X131492483Y-137410667D01*
X131489168Y-137407953D01*
X131489164Y-137407950D01*
X131266295Y-137225534D01*
X131262977Y-137222818D01*
X131010101Y-137067856D01*
X130738533Y-136948646D01*
X130711776Y-136941024D01*
X130599981Y-136909178D01*
X130539946Y-136871279D01*
X130509932Y-136806939D01*
X130508500Y-136787999D01*
X130508500Y-125749616D01*
X131066818Y-125749616D01*
X131084949Y-126107522D01*
X131085486Y-126110877D01*
X131085487Y-126110883D01*
X131090473Y-126142010D01*
X131141627Y-126461377D01*
X131236190Y-126807041D01*
X131367531Y-127140470D01*
X131392215Y-127187487D01*
X131513827Y-127419122D01*
X131534114Y-127457764D01*
X131536015Y-127460593D01*
X131536021Y-127460603D01*
X131660137Y-127645305D01*
X131733991Y-127755211D01*
X131964822Y-128029332D01*
X132223908Y-128276920D01*
X132508218Y-128495079D01*
X132540213Y-128514532D01*
X132811512Y-128679485D01*
X132811517Y-128679488D01*
X132814427Y-128681257D01*
X132817515Y-128682703D01*
X132817514Y-128682703D01*
X133135867Y-128831831D01*
X133135877Y-128831835D01*
X133138951Y-128833275D01*
X133142169Y-128834377D01*
X133142172Y-128834378D01*
X133474772Y-128948253D01*
X133474780Y-128948255D01*
X133477995Y-128949356D01*
X133827592Y-129028141D01*
X133879885Y-129034099D01*
X134180271Y-129068324D01*
X134180279Y-129068324D01*
X134183654Y-129068709D01*
X134187058Y-129068727D01*
X134187061Y-129068727D01*
X134381384Y-129069744D01*
X134542014Y-129070585D01*
X134545400Y-129070235D01*
X134545402Y-129070235D01*
X134895089Y-129034099D01*
X134895098Y-129034098D01*
X134898481Y-129033748D01*
X134901814Y-129033034D01*
X134901817Y-129033033D01*
X135074343Y-128996046D01*
X135248884Y-128958628D01*
X135589125Y-128846104D01*
X135915223Y-128697493D01*
X136109602Y-128582079D01*
X136220419Y-128516281D01*
X136220424Y-128516278D01*
X136223364Y-128514532D01*
X136509943Y-128299362D01*
X136771608Y-128054501D01*
X137005297Y-127782812D01*
X137200093Y-127499382D01*
X137206347Y-127490283D01*
X137206352Y-127490276D01*
X137208277Y-127487474D01*
X137209889Y-127484480D01*
X137209894Y-127484472D01*
X137376552Y-127174954D01*
X137378174Y-127171942D01*
X137484262Y-126910678D01*
X137511719Y-126843059D01*
X137511721Y-126843054D01*
X137512999Y-126839906D01*
X137523299Y-126803750D01*
X137583927Y-126590913D01*
X137611177Y-126495252D01*
X137671558Y-126142010D01*
X137673668Y-126107522D01*
X137693325Y-125786110D01*
X137693435Y-125784313D01*
X137693516Y-125761182D01*
X137674136Y-125403341D01*
X137616223Y-125049687D01*
X137520454Y-124704355D01*
X137517400Y-124696679D01*
X137389209Y-124374551D01*
X137387950Y-124371387D01*
X137272022Y-124152437D01*
X137221859Y-124057695D01*
X137221855Y-124057688D01*
X137220260Y-124054676D01*
X137019347Y-123757928D01*
X136787560Y-123484614D01*
X136527611Y-123237932D01*
X136242541Y-123020767D01*
X136239629Y-123019010D01*
X136239624Y-123019007D01*
X136201926Y-122996266D01*
X138987004Y-122996266D01*
X138990337Y-123137717D01*
X138999268Y-123516658D01*
X139000654Y-123575486D01*
X139000852Y-123577639D01*
X139044426Y-124051851D01*
X139053668Y-124152437D01*
X139054010Y-124154560D01*
X139141329Y-124696679D01*
X139145801Y-124724446D01*
X139276626Y-125288863D01*
X139445537Y-125843076D01*
X139651752Y-126384517D01*
X139652655Y-126386475D01*
X139652658Y-126386483D01*
X139765528Y-126631315D01*
X139894316Y-126910678D01*
X140172105Y-127419122D01*
X140483832Y-127907496D01*
X140828055Y-128373536D01*
X140829451Y-128375179D01*
X140829454Y-128375183D01*
X141104482Y-128698911D01*
X141203178Y-128815084D01*
X141204675Y-128816621D01*
X141204678Y-128816624D01*
X141605971Y-129228563D01*
X141605980Y-129228572D01*
X141607465Y-129230096D01*
X142039042Y-129616649D01*
X142040722Y-129617959D01*
X142494225Y-129971638D01*
X142494237Y-129971647D01*
X142495912Y-129972953D01*
X142975958Y-130297358D01*
X143088544Y-130362753D01*
X143475109Y-130587288D01*
X143475118Y-130587293D01*
X143476957Y-130588361D01*
X143725697Y-130711026D01*
X143978484Y-130835687D01*
X143996588Y-130844615D01*
X144252769Y-130949944D01*
X144530474Y-131064123D01*
X144530484Y-131064127D01*
X144532445Y-131064933D01*
X144797780Y-131153455D01*
X145080019Y-131247617D01*
X145080026Y-131247619D01*
X145082046Y-131248293D01*
X145642846Y-131393848D01*
X145644943Y-131394242D01*
X145644946Y-131394243D01*
X145708345Y-131406165D01*
X146212247Y-131500923D01*
X146214354Y-131501172D01*
X146214358Y-131501173D01*
X146423894Y-131525973D01*
X146787612Y-131569022D01*
X146789758Y-131569129D01*
X146789760Y-131569129D01*
X147364143Y-131597724D01*
X147364149Y-131597724D01*
X147366276Y-131597830D01*
X147368405Y-131597791D01*
X147368407Y-131597791D01*
X147514164Y-131595120D01*
X147945560Y-131587213D01*
X148325116Y-131554340D01*
X148520635Y-131537406D01*
X148520639Y-131537406D01*
X148522781Y-131537220D01*
X149095264Y-131448083D01*
X149350058Y-131390429D01*
X149658274Y-131320687D01*
X149658280Y-131320685D01*
X149660359Y-131320215D01*
X150215448Y-131154208D01*
X150217445Y-131153459D01*
X150217458Y-131153455D01*
X150574739Y-131019517D01*
X150757961Y-130950831D01*
X150989770Y-130845434D01*
X151283442Y-130711910D01*
X151283456Y-130711903D01*
X151285385Y-130711026D01*
X151287256Y-130710017D01*
X151287265Y-130710012D01*
X151793381Y-130436926D01*
X151793380Y-130436926D01*
X151795277Y-130435903D01*
X152285276Y-130126737D01*
X152287001Y-130125477D01*
X152287011Y-130125470D01*
X152751381Y-129786224D01*
X152751389Y-129786218D01*
X152753112Y-129784959D01*
X153196619Y-129412153D01*
X153198147Y-129410680D01*
X153198157Y-129410671D01*
X153589154Y-129033748D01*
X153613742Y-129010045D01*
X154002549Y-128580497D01*
X154240235Y-128278995D01*
X154359916Y-128127180D01*
X154359919Y-128127176D01*
X154361241Y-128125499D01*
X154511474Y-127905679D01*
X154686939Y-127648939D01*
X154686946Y-127648928D01*
X154688155Y-127647159D01*
X154981777Y-127147690D01*
X155240748Y-126629408D01*
X155241565Y-126627450D01*
X155241571Y-126627437D01*
X155463045Y-126096685D01*
X155463048Y-126096677D01*
X155463868Y-126094712D01*
X155650104Y-125546079D01*
X155798593Y-124986049D01*
X155847669Y-124732395D01*
X155908238Y-124419337D01*
X155908240Y-124419327D01*
X155908648Y-124417216D01*
X155913925Y-124374551D01*
X155941131Y-124154560D01*
X155979759Y-123842215D01*
X156011596Y-123263710D01*
X156011842Y-123240273D01*
X156013448Y-123086810D01*
X156013463Y-123085417D01*
X156011202Y-123019007D01*
X155993821Y-122508502D01*
X155993820Y-122508489D01*
X155993748Y-122506371D01*
X155934695Y-121930007D01*
X155836577Y-121358995D01*
X155836073Y-121356920D01*
X155836070Y-121356905D01*
X155700355Y-120798061D01*
X155700354Y-120798057D01*
X155699849Y-120795978D01*
X155673391Y-120712317D01*
X155560687Y-120355955D01*
X155525143Y-120243565D01*
X155450650Y-120053966D01*
X155314054Y-119706308D01*
X155314052Y-119706304D01*
X155313270Y-119704313D01*
X155065210Y-119180721D01*
X155064162Y-119178850D01*
X155064156Y-119178838D01*
X154783162Y-118677088D01*
X154782112Y-118675213D01*
X154748781Y-118624180D01*
X154466455Y-118191919D01*
X154466452Y-118191915D01*
X154465287Y-118190131D01*
X154116203Y-117727721D01*
X153736477Y-117290125D01*
X153327866Y-116879370D01*
X152892265Y-116497357D01*
X152820569Y-116442640D01*
X152433396Y-116147160D01*
X152431689Y-116145857D01*
X151948272Y-115826497D01*
X151444254Y-115540756D01*
X151357225Y-115498965D01*
X150923899Y-115290884D01*
X150923893Y-115290881D01*
X150921968Y-115289957D01*
X150919988Y-115289167D01*
X150919981Y-115289164D01*
X150385811Y-115076052D01*
X150385807Y-115076051D01*
X150383833Y-115075263D01*
X149832342Y-114897668D01*
X149830279Y-114897155D01*
X149830270Y-114897153D01*
X149272133Y-114758512D01*
X149270048Y-114757994D01*
X148699557Y-114656887D01*
X148697445Y-114656659D01*
X148697442Y-114656659D01*
X148125649Y-114595047D01*
X148125638Y-114595046D01*
X148123511Y-114594817D01*
X147544576Y-114572071D01*
X147542457Y-114572132D01*
X147542447Y-114572132D01*
X146967580Y-114588691D01*
X146967574Y-114588691D01*
X146965435Y-114588753D01*
X146963303Y-114588960D01*
X146963290Y-114588961D01*
X146577569Y-114626442D01*
X146388770Y-114644788D01*
X146386651Y-114645141D01*
X146386641Y-114645142D01*
X145819354Y-114739565D01*
X145819350Y-114739566D01*
X145817252Y-114739915D01*
X145253527Y-114873693D01*
X145251470Y-114874332D01*
X145251469Y-114874332D01*
X144702263Y-115044865D01*
X144702255Y-115044868D01*
X144700206Y-115045504D01*
X144159852Y-115254551D01*
X143634969Y-115499866D01*
X143127986Y-115780313D01*
X142641251Y-116094594D01*
X142177020Y-116441252D01*
X141737441Y-116818682D01*
X141735915Y-116820185D01*
X141735912Y-116820187D01*
X141675792Y-116879370D01*
X141324552Y-117225136D01*
X140940264Y-117658731D01*
X140586357Y-118117460D01*
X140585158Y-118119255D01*
X140585154Y-118119260D01*
X140382949Y-118421882D01*
X140264470Y-118599198D01*
X140187402Y-118733495D01*
X140007067Y-119047742D01*
X139976094Y-119101714D01*
X139722565Y-119622680D01*
X139505056Y-120159683D01*
X139477558Y-120243565D01*
X139327315Y-120701880D01*
X139324575Y-120710237D01*
X139181959Y-121271791D01*
X139077867Y-121841745D01*
X139077624Y-121843893D01*
X139077624Y-121843894D01*
X139013446Y-122411580D01*
X139012781Y-122417458D01*
X138987004Y-122996266D01*
X136201926Y-122996266D01*
X135938600Y-122837418D01*
X135938594Y-122837415D01*
X135935685Y-122835660D01*
X135610632Y-122684775D01*
X135366003Y-122601973D01*
X135274412Y-122570971D01*
X135274407Y-122570970D01*
X135271185Y-122569879D01*
X135267861Y-122569142D01*
X135267850Y-122569139D01*
X135141448Y-122541117D01*
X135112386Y-122534674D01*
X135050209Y-122500402D01*
X135016431Y-122437956D01*
X135013657Y-122411661D01*
X135013657Y-119434437D01*
X135033659Y-119366316D01*
X135050562Y-119345342D01*
X141247755Y-113148149D01*
X141310067Y-113114123D01*
X141380882Y-113119188D01*
X141402300Y-113129577D01*
X141691629Y-113305492D01*
X141694717Y-113306938D01*
X141694716Y-113306938D01*
X142013069Y-113456066D01*
X142013079Y-113456070D01*
X142016153Y-113457510D01*
X142019371Y-113458612D01*
X142019374Y-113458613D01*
X142351974Y-113572488D01*
X142351982Y-113572490D01*
X142355197Y-113573591D01*
X142704794Y-113652376D01*
X142757087Y-113658334D01*
X143057473Y-113692559D01*
X143057481Y-113692559D01*
X143060856Y-113692944D01*
X143064260Y-113692962D01*
X143064263Y-113692962D01*
X143258586Y-113693979D01*
X143419216Y-113694820D01*
X143422602Y-113694470D01*
X143422604Y-113694470D01*
X143772291Y-113658334D01*
X143772300Y-113658333D01*
X143775683Y-113657983D01*
X143779016Y-113657269D01*
X143779019Y-113657268D01*
X143951545Y-113620281D01*
X144126086Y-113582863D01*
X144466327Y-113470339D01*
X144792425Y-113321728D01*
X144886411Y-113265923D01*
X145097621Y-113140516D01*
X145097626Y-113140513D01*
X145100566Y-113138767D01*
X145112800Y-113129582D01*
X145229664Y-113041837D01*
X145387145Y-112923597D01*
X145648810Y-112678736D01*
X145882499Y-112407047D01*
X146010910Y-112220208D01*
X146083549Y-112114518D01*
X146083554Y-112114511D01*
X146085479Y-112111709D01*
X146087091Y-112108715D01*
X146087096Y-112108707D01*
X146253754Y-111799189D01*
X146255376Y-111796177D01*
X146390201Y-111464141D01*
X146400501Y-111427985D01*
X146420886Y-111356423D01*
X146488379Y-111119487D01*
X146548760Y-110766245D01*
X146550870Y-110731757D01*
X146570527Y-110410345D01*
X146570637Y-110408548D01*
X146570718Y-110385417D01*
X146570092Y-110373851D01*
X148429302Y-110373851D01*
X148447433Y-110731757D01*
X148447970Y-110735112D01*
X148447971Y-110735118D01*
X148452957Y-110766245D01*
X148504111Y-111085612D01*
X148598674Y-111431276D01*
X148730015Y-111764705D01*
X148896598Y-112081999D01*
X148898499Y-112084828D01*
X148898505Y-112084838D01*
X148976860Y-112201441D01*
X149096475Y-112379446D01*
X149327306Y-112653567D01*
X149586392Y-112901155D01*
X149870702Y-113119314D01*
X149902697Y-113138767D01*
X150173996Y-113303720D01*
X150174001Y-113303723D01*
X150176911Y-113305492D01*
X150179999Y-113306938D01*
X150179998Y-113306938D01*
X150498351Y-113456066D01*
X150498361Y-113456070D01*
X150501435Y-113457510D01*
X150504653Y-113458612D01*
X150504656Y-113458613D01*
X150837256Y-113572488D01*
X150837264Y-113572490D01*
X150840479Y-113573591D01*
X151190076Y-113652376D01*
X151242369Y-113658334D01*
X151542755Y-113692559D01*
X151542763Y-113692559D01*
X151546138Y-113692944D01*
X151549542Y-113692962D01*
X151549545Y-113692962D01*
X151743868Y-113693979D01*
X151904498Y-113694820D01*
X151907884Y-113694470D01*
X151907886Y-113694470D01*
X152257573Y-113658334D01*
X152257582Y-113658333D01*
X152260965Y-113657983D01*
X152264298Y-113657269D01*
X152264301Y-113657268D01*
X152436827Y-113620281D01*
X152611368Y-113582863D01*
X152951609Y-113470339D01*
X153277707Y-113321728D01*
X153371693Y-113265923D01*
X153582903Y-113140516D01*
X153582908Y-113140513D01*
X153585848Y-113138767D01*
X153627514Y-113107483D01*
X153693997Y-113082579D01*
X153763393Y-113097572D01*
X153792260Y-113119150D01*
X159998238Y-119325129D01*
X160032264Y-119387441D01*
X160035143Y-119414224D01*
X160035143Y-122400939D01*
X160015141Y-122469060D01*
X159961485Y-122515553D01*
X159935985Y-122524047D01*
X159887182Y-122534688D01*
X159739960Y-122566788D01*
X159400114Y-122680499D01*
X159397021Y-122681921D01*
X159397020Y-122681922D01*
X159390817Y-122684775D01*
X159074537Y-122830248D01*
X158767036Y-123014283D01*
X158764310Y-123016345D01*
X158764308Y-123016346D01*
X158758463Y-123020767D01*
X158481210Y-123230452D01*
X158220402Y-123476225D01*
X157987662Y-123748728D01*
X157985743Y-123751540D01*
X157985740Y-123751545D01*
X157922440Y-123844340D01*
X157785714Y-124044773D01*
X157616920Y-124360896D01*
X157483254Y-124693400D01*
X157482334Y-124696674D01*
X157482332Y-124696679D01*
X157400411Y-124988123D01*
X157386280Y-125038395D01*
X157385718Y-125041752D01*
X157385718Y-125041753D01*
X157344027Y-125290893D01*
X157327133Y-125391845D01*
X157306504Y-125749616D01*
X157324635Y-126107522D01*
X157325172Y-126110877D01*
X157325173Y-126110883D01*
X157330159Y-126142010D01*
X157381313Y-126461377D01*
X157475876Y-126807041D01*
X157607217Y-127140470D01*
X157631901Y-127187487D01*
X157753513Y-127419122D01*
X157773800Y-127457764D01*
X157775701Y-127460593D01*
X157775707Y-127460603D01*
X157899823Y-127645305D01*
X157973677Y-127755211D01*
X158204508Y-128029332D01*
X158463594Y-128276920D01*
X158747904Y-128495079D01*
X158779899Y-128514532D01*
X159051198Y-128679485D01*
X159051203Y-128679488D01*
X159054113Y-128681257D01*
X159057201Y-128682703D01*
X159057200Y-128682703D01*
X159375553Y-128831831D01*
X159375563Y-128831835D01*
X159378637Y-128833275D01*
X159381855Y-128834377D01*
X159381858Y-128834378D01*
X159714458Y-128948253D01*
X159714466Y-128948255D01*
X159717681Y-128949356D01*
X160067278Y-129028141D01*
X160119571Y-129034099D01*
X160419957Y-129068324D01*
X160419965Y-129068324D01*
X160423340Y-129068709D01*
X160426744Y-129068727D01*
X160426747Y-129068727D01*
X160621070Y-129069744D01*
X160781700Y-129070585D01*
X160785086Y-129070235D01*
X160785088Y-129070235D01*
X161134775Y-129034099D01*
X161134784Y-129034098D01*
X161138167Y-129033748D01*
X161141500Y-129033034D01*
X161141503Y-129033033D01*
X161314029Y-128996046D01*
X161488570Y-128958628D01*
X161828811Y-128846104D01*
X162154909Y-128697493D01*
X162349288Y-128582079D01*
X162460105Y-128516281D01*
X162460110Y-128516278D01*
X162463050Y-128514532D01*
X162749629Y-128299362D01*
X163011294Y-128054501D01*
X163244983Y-127782812D01*
X163439779Y-127499382D01*
X163446033Y-127490283D01*
X163446038Y-127490276D01*
X163447963Y-127487474D01*
X163449575Y-127484480D01*
X163449580Y-127484472D01*
X163616238Y-127174954D01*
X163617860Y-127171942D01*
X163723948Y-126910678D01*
X163751405Y-126843059D01*
X163751407Y-126843054D01*
X163752685Y-126839906D01*
X163762985Y-126803750D01*
X163823613Y-126590913D01*
X163850863Y-126495252D01*
X163911244Y-126142010D01*
X163913354Y-126107522D01*
X163933011Y-125786110D01*
X163933121Y-125784313D01*
X163933202Y-125761182D01*
X163913822Y-125403341D01*
X163855909Y-125049687D01*
X163760140Y-124704355D01*
X163757086Y-124696679D01*
X163628895Y-124374551D01*
X163627636Y-124371387D01*
X163511708Y-124152437D01*
X163461545Y-124057695D01*
X163461541Y-124057688D01*
X163459946Y-124054676D01*
X163259033Y-123757928D01*
X163027246Y-123484614D01*
X162767297Y-123237932D01*
X162482227Y-123020767D01*
X162479315Y-123019010D01*
X162479310Y-123019007D01*
X162178286Y-122837418D01*
X162178280Y-122837415D01*
X162175371Y-122835660D01*
X161850318Y-122684775D01*
X161605689Y-122601973D01*
X161514098Y-122570971D01*
X161514093Y-122570970D01*
X161510871Y-122569879D01*
X161507547Y-122569142D01*
X161507536Y-122569139D01*
X161303272Y-122523855D01*
X161241095Y-122489583D01*
X161207317Y-122427137D01*
X161204543Y-122400842D01*
X161204543Y-119166429D01*
X161205621Y-119149982D01*
X161208511Y-119128031D01*
X161209589Y-119119843D01*
X161189493Y-118967206D01*
X161130577Y-118824970D01*
X161060386Y-118733495D01*
X161060385Y-118733494D01*
X161036856Y-118702830D01*
X161012736Y-118684322D01*
X161000346Y-118673455D01*
X154590644Y-112263753D01*
X154556618Y-112201441D01*
X154561683Y-112130626D01*
X154570856Y-112111760D01*
X154570761Y-112111709D01*
X154571990Y-112109426D01*
X154572376Y-112108709D01*
X154572380Y-112108703D01*
X154739036Y-111799189D01*
X154740658Y-111796177D01*
X154875483Y-111464141D01*
X154885783Y-111427985D01*
X154906168Y-111356423D01*
X154973661Y-111119487D01*
X155034042Y-110766245D01*
X155036152Y-110731757D01*
X155055809Y-110410345D01*
X155055919Y-110408548D01*
X155056000Y-110385417D01*
X155036620Y-110027576D01*
X154978707Y-109673922D01*
X154882938Y-109328590D01*
X154879884Y-109320914D01*
X154751693Y-108998786D01*
X154750434Y-108995622D01*
X154720409Y-108938915D01*
X154584343Y-108681930D01*
X154584339Y-108681923D01*
X154582744Y-108678911D01*
X154381831Y-108382163D01*
X154150044Y-108108849D01*
X153890095Y-107862167D01*
X153605025Y-107645002D01*
X153602113Y-107643245D01*
X153602108Y-107643242D01*
X153301084Y-107461653D01*
X153301078Y-107461650D01*
X153298169Y-107459895D01*
X152973116Y-107309010D01*
X152803393Y-107251562D01*
X152636896Y-107195206D01*
X152636891Y-107195205D01*
X152633669Y-107194114D01*
X152435322Y-107150141D01*
X152287134Y-107117288D01*
X152287128Y-107117287D01*
X152283799Y-107116549D01*
X152280410Y-107116175D01*
X152280405Y-107116174D01*
X151930979Y-107077597D01*
X151930974Y-107077597D01*
X151927598Y-107077224D01*
X151924199Y-107077218D01*
X151924198Y-107077218D01*
X151754721Y-107076922D01*
X151569233Y-107076599D01*
X151456054Y-107088694D01*
X151216280Y-107114318D01*
X151216272Y-107114319D01*
X151212897Y-107114680D01*
X150862758Y-107191023D01*
X150522912Y-107304734D01*
X150519819Y-107306156D01*
X150519818Y-107306157D01*
X150513615Y-107309010D01*
X150197335Y-107454483D01*
X149889834Y-107638518D01*
X149887108Y-107640580D01*
X149887106Y-107640581D01*
X149881261Y-107645002D01*
X149604008Y-107854687D01*
X149343200Y-108100460D01*
X149110460Y-108372963D01*
X149108541Y-108375775D01*
X149108538Y-108375780D01*
X149015265Y-108512514D01*
X148908512Y-108669008D01*
X148739718Y-108985131D01*
X148606052Y-109317635D01*
X148605132Y-109320909D01*
X148605130Y-109320914D01*
X148602973Y-109328590D01*
X148509078Y-109662630D01*
X148449931Y-110016080D01*
X148429302Y-110373851D01*
X146570092Y-110373851D01*
X146551338Y-110027576D01*
X146493425Y-109673922D01*
X146397656Y-109328590D01*
X146394602Y-109320914D01*
X146266411Y-108998786D01*
X146265152Y-108995622D01*
X146235127Y-108938915D01*
X146099061Y-108681930D01*
X146099057Y-108681923D01*
X146097462Y-108678911D01*
X145896549Y-108382163D01*
X145664762Y-108108849D01*
X145404813Y-107862167D01*
X145119743Y-107645002D01*
X145116831Y-107643245D01*
X145116826Y-107643242D01*
X144815802Y-107461653D01*
X144815796Y-107461650D01*
X144812887Y-107459895D01*
X144487834Y-107309010D01*
X144318111Y-107251562D01*
X144151614Y-107195206D01*
X144151609Y-107195205D01*
X144148387Y-107194114D01*
X143950040Y-107150141D01*
X143801852Y-107117288D01*
X143801846Y-107117287D01*
X143798517Y-107116549D01*
X143795128Y-107116175D01*
X143795123Y-107116174D01*
X143445697Y-107077597D01*
X143445692Y-107077597D01*
X143442316Y-107077224D01*
X143438917Y-107077218D01*
X143438916Y-107077218D01*
X143269439Y-107076922D01*
X143083951Y-107076599D01*
X142970772Y-107088694D01*
X142730998Y-107114318D01*
X142730990Y-107114319D01*
X142727615Y-107114680D01*
X142377476Y-107191023D01*
X142037630Y-107304734D01*
X142034537Y-107306156D01*
X142034536Y-107306157D01*
X142028333Y-107309010D01*
X141712053Y-107454483D01*
X141404552Y-107638518D01*
X141401826Y-107640580D01*
X141401824Y-107640581D01*
X141395979Y-107645002D01*
X141118726Y-107854687D01*
X140857918Y-108100460D01*
X140625178Y-108372963D01*
X140623259Y-108375775D01*
X140623256Y-108375780D01*
X140529983Y-108512514D01*
X140423230Y-108669008D01*
X140254436Y-108985131D01*
X140120770Y-109317635D01*
X140119850Y-109320909D01*
X140119848Y-109320914D01*
X140117691Y-109328590D01*
X140023796Y-109662630D01*
X139964649Y-110016080D01*
X139944020Y-110373851D01*
X139962151Y-110731757D01*
X139962688Y-110735112D01*
X139962689Y-110735118D01*
X139967675Y-110766245D01*
X140018829Y-111085612D01*
X140113392Y-111431276D01*
X140244733Y-111764705D01*
X140406352Y-112072545D01*
X140420307Y-112142154D01*
X140394413Y-112208260D01*
X140383887Y-112220208D01*
X133987904Y-118616191D01*
X133979618Y-118623731D01*
X133973139Y-118627843D01*
X133967714Y-118633620D01*
X133926514Y-118677494D01*
X133923759Y-118680336D01*
X133904022Y-118700073D01*
X133901542Y-118703270D01*
X133893839Y-118712290D01*
X133863571Y-118744522D01*
X133859752Y-118751468D01*
X133859750Y-118751471D01*
X133853809Y-118762277D01*
X133842958Y-118778796D01*
X133830543Y-118794802D01*
X133827398Y-118802071D01*
X133827395Y-118802075D01*
X133812983Y-118835380D01*
X133807766Y-118846030D01*
X133786462Y-118884783D01*
X133784491Y-118892458D01*
X133784491Y-118892459D01*
X133781424Y-118904405D01*
X133775020Y-118923109D01*
X133766976Y-118941698D01*
X133765737Y-118949521D01*
X133765734Y-118949531D01*
X133760058Y-118985367D01*
X133757652Y-118996987D01*
X133746657Y-119039813D01*
X133746657Y-119060067D01*
X133745106Y-119079777D01*
X133741937Y-119099786D01*
X133742683Y-119107678D01*
X133746098Y-119143804D01*
X133746657Y-119155662D01*
X133746657Y-122411580D01*
X133726655Y-122479701D01*
X133672999Y-122526194D01*
X133647500Y-122534688D01*
X133500274Y-122566788D01*
X133160428Y-122680499D01*
X133157335Y-122681921D01*
X133157334Y-122681922D01*
X133151131Y-122684775D01*
X132834851Y-122830248D01*
X132527350Y-123014283D01*
X132524624Y-123016345D01*
X132524622Y-123016346D01*
X132518777Y-123020767D01*
X132241524Y-123230452D01*
X131980716Y-123476225D01*
X131747976Y-123748728D01*
X131746057Y-123751540D01*
X131746054Y-123751545D01*
X131682754Y-123844340D01*
X131546028Y-124044773D01*
X131377234Y-124360896D01*
X131243568Y-124693400D01*
X131242648Y-124696674D01*
X131242646Y-124696679D01*
X131160725Y-124988123D01*
X131146594Y-125038395D01*
X131146032Y-125041752D01*
X131146032Y-125041753D01*
X131104341Y-125290893D01*
X131087447Y-125391845D01*
X131066818Y-125749616D01*
X130508500Y-125749616D01*
X130508500Y-120709614D01*
X130510000Y-120690230D01*
X130512310Y-120675396D01*
X130512310Y-120675393D01*
X130513691Y-120666523D01*
X130511016Y-120646065D01*
X130510072Y-120624236D01*
X130521543Y-120361442D01*
X130522501Y-120350491D01*
X130560821Y-120059415D01*
X130562730Y-120048589D01*
X130626274Y-119761963D01*
X130629119Y-119751345D01*
X130717406Y-119471345D01*
X130721166Y-119461015D01*
X130833521Y-119189778D01*
X130838167Y-119179815D01*
X130956226Y-118953039D01*
X130969859Y-118932186D01*
X130971993Y-118929536D01*
X130971994Y-118929535D01*
X130977623Y-118922546D01*
X130982140Y-118911669D01*
X130989836Y-118893137D01*
X130997082Y-118878461D01*
X137219763Y-108100460D01*
X138260989Y-106297004D01*
X138271980Y-106280967D01*
X138281399Y-106269273D01*
X138281401Y-106269269D01*
X138287030Y-106262281D01*
X138290470Y-106253996D01*
X138290472Y-106253993D01*
X138294629Y-106243981D01*
X138304997Y-106224182D01*
X138462064Y-105979782D01*
X138469019Y-105970015D01*
X138666994Y-105718268D01*
X138674847Y-105709206D01*
X138895851Y-105477424D01*
X138904518Y-105469159D01*
X139146563Y-105259427D01*
X139155981Y-105252020D01*
X139416869Y-105066243D01*
X139426956Y-105059761D01*
X139565629Y-104979698D01*
X139704307Y-104899632D01*
X139714953Y-104894143D01*
X140006294Y-104761092D01*
X140017412Y-104756642D01*
X140072561Y-104737554D01*
X140320063Y-104651894D01*
X140331567Y-104648516D01*
X140642789Y-104573014D01*
X140654563Y-104570744D01*
X140971580Y-104525164D01*
X140983517Y-104524025D01*
X141266312Y-104510554D01*
X141291689Y-104511911D01*
X141294135Y-104512291D01*
X141303125Y-104513691D01*
X141312027Y-104512527D01*
X141312029Y-104512527D01*
X141329814Y-104510201D01*
X141334687Y-104509564D01*
X141351022Y-104508500D01*
X153641232Y-104508500D01*
X153660617Y-104510000D01*
G37*
%TD.AperFunction*%
%TA.AperFunction,NonConductor*%
G36*
X148023150Y-137913126D02*
G01*
X148057817Y-137941114D01*
X148086250Y-137973938D01*
X148258126Y-138116632D01*
X148451000Y-138229338D01*
X148455825Y-138231180D01*
X148455826Y-138231181D01*
X148499321Y-138247790D01*
X148555824Y-138290778D01*
X148580117Y-138357489D01*
X148564487Y-138426743D01*
X148513896Y-138476554D01*
X148454372Y-138491500D01*
X147720226Y-138491500D01*
X147652105Y-138471498D01*
X147605612Y-138417842D01*
X147595508Y-138347568D01*
X147625002Y-138282988D01*
X147644661Y-138264674D01*
X147706080Y-138218643D01*
X147706081Y-138218642D01*
X147713261Y-138213261D01*
X147800615Y-138096705D01*
X147809530Y-138072924D01*
X147844598Y-137979382D01*
X147887240Y-137922618D01*
X147953802Y-137897918D01*
X148023150Y-137913126D01*
G37*
%TD.AperFunction*%
%TA.AperFunction,NonConductor*%
G36*
X130720028Y-138095014D02*
G01*
X130743415Y-138116632D01*
X130852182Y-138217176D01*
X130867611Y-138234311D01*
X130909279Y-138290111D01*
X130934011Y-138356661D01*
X130918837Y-138426017D01*
X130868575Y-138476159D01*
X130808321Y-138491500D01*
X130634500Y-138491500D01*
X130566379Y-138471498D01*
X130519886Y-138417842D01*
X130508500Y-138365500D01*
X130508500Y-138187538D01*
X130528502Y-138119417D01*
X130582158Y-138072924D01*
X130652432Y-138062820D01*
X130720028Y-138095014D01*
G37*
%TD.AperFunction*%
M02*
